<?xml version="1.0" encoding="iso-8859-1"?>
<!-- Generator: Adobe Illustrator 19.1.0, SVG Export Plug-In . SVG Version: 6.00 Build 0)  -->
<svg version="1.1" id="Capa_1" xmlns="http://www.w3.org/2000/svg" xmlns:xlink="http://www.w3.org/1999/xlink" x="0px" y="0px"
	 viewBox="0 0 337.699 337.699" style="enable-background:new 0 0 337.699 337.699;" xml:space="preserve">
<g>
	<path style="fill:#FFFFFF;" d="M141.037,224.109c0-20.33,5.791-39.586,16.141-55.732h153.986c-1.419-2.738-2.947-5.413-4.605-8
		H147.177c-10.35,16.146-16.141,35.402-16.141,55.732c0,24.074,7.847,31.539,23.474,43.112
		C145.541,251.044,141.037,242.341,141.037,224.109z"/>
	<path style="fill:#FFFFFF;" d="M178.717,287.324c0-0.977,0.259-2.311,0.59-3.463h-10c-0.331,1.152-0.59,2.486-0.59,3.463
		c0,1.838,1.495,3.332,3.332,3.332h10C180.212,290.656,178.717,289.162,178.717,287.324z"/>
	<path style="fill:#FFFFFF;" d="M192.049,127.586h-10c-8.652,4.787-16.391,10.809-23.076,17.791h10
		C175.658,138.394,183.396,132.373,192.049,127.586z"/>
	<path style="fill:#FFFFFF;" d="M201.52,105c0-3.967,3.228-7.195,7.193-7.195h-10c-3.966,0-7.193,3.229-7.193,7.195
		c0,3.967,3.228,7.195,7.193,7.195h10C204.748,112.195,201.52,108.967,201.52,105z"/>
	<path style="fill:none;" d="M286.242,268.861c0.088-0.067,0.172-0.13,0.26-0.197c-0.404,0.07-0.809,0.141-1.217,0.197H286.242z"/>
	<path style="fill:#FFFFFF;" d="M22.913,178.837c2.036-12.85,9.041-25.811,19.727-36.496c12.718-12.717,29.052-20.309,43.695-20.309
		c7.478,0,13.987,1.983,19.068,5.76c-1.204-2.19-2.684-4.184-4.44-5.94c-5.385-5.387-12.973-8.232-21.944-8.232
		c-14.644,0-30.978,7.592-43.695,20.309c-10.685,10.686-17.69,23.646-19.726,36.496c-1.896,11.967,0.82,22.318,7.647,29.145
		c0.897,0.897,1.861,1.718,2.877,2.473C22.646,195.718,21.506,187.724,22.913,178.837z"/>
	<path style="fill:#FFE09C;" d="M271.687,127.586h-37.318v17.791h60.395C288.078,138.394,280.34,132.373,271.687,127.586z"/>
	<path style="fill:none;" d="M234.369,145.377h60.395c-6.686-6.982-14.424-13.004-23.076-17.791h-37.318V145.377z"/>
	<path style="fill:none;" d="M234.369,145.377h60.395c-6.686-6.982-14.424-13.004-23.076-17.791h-37.318V145.377z"/>
	<path style="fill:none;" d="M239.172,82.805V57.326c0-2.364-0.811-4.537-2.156-6.276c-1.883-2.432-4.822-4.007-8.129-4.007h-4.037
		c-5.67,0-10.284,4.613-10.284,10.283v25.478h8H239.172z"/>
	<path style="fill:none;" d="M192.049,127.586h-10c-8.652,4.787-16.391,10.809-23.076,17.791h10
		C175.658,138.394,183.396,132.373,192.049,127.586z"/>
	<path style="fill:none;" d="M198.714,112.195h10c-3.966,0-7.193-3.229-7.193-7.195c0-3.967,3.228-7.195,7.193-7.195h-10
		c-3.966,0-7.193,3.229-7.193,7.195C191.52,108.967,194.748,112.195,198.714,112.195z"/>
	<path style="fill:#FFE09C;" d="M168.972,145.377h50.396v-17.791h-27.32C183.396,132.373,175.658,138.394,168.972,145.377z"/>
	<path style="fill:#FFA5A5;" d="M201.52,105c0,3.967,3.228,7.195,7.193,7.195h46.309c3.967,0,7.194-3.229,7.194-7.195
		c0-3.967-3.228-7.195-7.194-7.195h-46.309C204.748,97.805,201.52,101.033,201.52,105z"/>
	<path style="fill:none;" d="M234.369,145.377h60.395c-6.686-6.982-14.424-13.004-23.076-17.791h-37.318V145.377z"/>
	<path style="fill:none;" d="M239.172,82.805V57.326c0-2.364-0.811-4.537-2.156-6.276c-1.883-2.432-4.822-4.007-8.129-4.007h-4.037
		c-5.67,0-10.284,4.613-10.284,10.283v25.478h8H239.172z"/>
	<path style="fill:none;" d="M198.714,112.195h10h46.309c3.967,0,7.194-3.229,7.194-7.195c0-3.967-3.228-7.195-7.194-7.195h-46.309
		h-10c-3.966,0-7.193,3.229-7.193,7.195C191.52,108.967,194.748,112.195,198.714,112.195z"/>
	<path style="fill:none;" d="M219.369,145.377v-17.791h-27.32h-10c-8.652,4.787-16.391,10.809-23.076,17.791h10H219.369z"/>
	<path style="fill:#FFE09C;" d="M285.019,287.324c0-0.977-0.258-2.311-0.59-3.463H179.306c-0.331,1.152-0.59,2.486-0.59,3.463
		c0,1.838,1.495,3.332,3.332,3.332h99.639C283.525,290.656,285.019,289.162,285.019,287.324z"/>
	<path style="fill:none;" d="M234.369,145.377h60.395c-6.686-6.982-14.424-13.004-23.076-17.791h-37.318V145.377z"/>
	<path style="fill:none;" d="M198.714,112.195h10h46.309c3.967,0,7.194-3.229,7.194-7.195c0-3.967-3.228-7.195-7.194-7.195h-46.309
		h-10c-3.966,0-7.193,3.229-7.193,7.195C191.52,108.967,194.748,112.195,198.714,112.195z"/>
	<path style="fill:none;" d="M239.172,82.805V57.326c0-2.364-0.811-4.537-2.156-6.276c-1.883-2.432-4.822-4.007-8.129-4.007h-4.037
		c-5.67,0-10.284,4.613-10.284,10.283v25.478h8H239.172z"/>
	<path style="fill:none;" d="M219.369,145.377v-17.791h-27.32h-10c-8.652,4.787-16.391,10.809-23.076,17.791h10H219.369z"/>
	<path style="fill:none;" d="M179.306,283.861h-10c-0.331,1.152-0.59,2.486-0.59,3.463c0,1.838,1.495,3.332,3.332,3.332h10h99.639
		c1.838,0,3.332-1.494,3.332-3.332c0-0.977-0.258-2.311-0.59-3.463H179.306z"/>
	<path style="fill:#FFA5A5;" d="M141.037,224.109c0,18.231,4.504,26.935,13.474,35.112c0.001,0,0.001,0.001,0.001,0.001
		c1.199,0.889,2.439,1.798,3.73,2.744c2.959,2.168,6.013,4.412,9.252,6.895h10h107.791h0.957c0.088-0.067,0.172-0.13,0.26-0.197
		c3.141-2.402,6.113-4.588,8.992-6.699c18.113-13.271,27.205-19.934,27.205-45.855c0-17.073-4.096-33.38-11.535-47.732H157.177
		C146.828,184.523,141.037,203.779,141.037,224.109z"/>
	<path style="fill:none;" d="M239.172,82.805V57.326c0-2.364-0.811-4.537-2.156-6.276c-1.883-2.432-4.822-4.007-8.129-4.007h-4.037
		c-5.67,0-10.284,4.613-10.284,10.283v25.478h8H239.172z"/>
	<path style="fill:none;" d="M234.369,145.377h60.395c-6.686-6.982-14.424-13.004-23.076-17.791h-37.318V145.377z"/>
	<path style="fill:none;" d="M198.714,112.195h10h46.309c3.967,0,7.194-3.229,7.194-7.195c0-3.967-3.228-7.195-7.194-7.195h-46.309
		h-10c-3.966,0-7.193,3.229-7.193,7.195C191.52,108.967,194.748,112.195,198.714,112.195z"/>
	<path style="fill:none;" d="M219.369,145.377v-17.791h-27.32h-10c-8.652,4.787-16.391,10.809-23.076,17.791h10H219.369z"/>
	<path style="fill:none;" d="M311.164,168.377c-1.419-2.738-2.947-5.413-4.605-8H157.177h-10
		c-10.35,16.146-16.141,35.402-16.141,55.732c0,24.074,7.848,31.539,23.475,43.113c1.199,0.889,2.439,1.798,3.73,2.744
		c2.959,2.168,6.013,4.412,9.252,6.895h10h107.791h0.957c0.088-0.067,0.172-0.13,0.26-0.197c3.141-2.402,6.113-4.588,8.992-6.699
		c18.113-13.271,27.205-19.934,27.205-45.855C322.699,199.036,318.603,182.729,311.164,168.377z"/>
	<path style="fill:none;" d="M179.306,283.861h-10c-0.331,1.152-0.59,2.486-0.59,3.463c0,1.838,1.495,3.332,3.332,3.332h10h99.639
		c1.838,0,3.332-1.494,3.332-3.332c0-0.977-0.258-2.311-0.59-3.463H179.306z"/>
	<path style="fill:#FFA5A5;" d="M42.639,142.341c-10.686,10.686-17.691,23.646-19.727,36.496
		c-1.407,8.888-0.267,16.881,3.208,23.204c5.081,3.776,11.592,5.76,19.068,5.76c14.644,0,30.978-7.592,43.697-20.311
		c10.684-10.684,17.689-23.645,19.725-36.494c1.408-8.888,0.267-16.881-3.208-23.204c-5.081-3.776-11.591-5.76-19.068-5.76
		C71.691,122.032,55.357,129.624,42.639,142.341z"/>
	<path style="fill:#D15252;" d="M277.093,113.455c-0.429-0.227-0.881-0.396-1.343-0.537c0.944-2.461,1.467-5.129,1.467-7.918
		c0-12.238-9.957-22.195-22.194-22.195h-0.851V57.326c0-13.941-11.343-25.283-25.285-25.283h-4.037
		c-13.551,0-24.643,10.715-25.254,24.117c-51.843,8.156-81.508,31.863-96.494,48.566c-6.908-4.018-15.069-6.107-24.083-6.107
		c-18.811,0-38.603,9.004-54.302,24.703C11.808,136.23,3.308,152.123,0.781,168.078c-2.666,16.834,1.544,31.785,11.857,42.098
		c8.259,8.26,19.515,12.625,32.551,12.625c18.81,0,38.603-9.004,54.303-24.703c12.908-12.906,21.408-28.801,23.935-44.756
		c2.398-15.141-0.784-28.746-8.948-38.836c13.246-14.689,39.338-35.377,85.087-43.131v11.43h-0.852
		c-12.237,0-22.193,9.957-22.193,22.195c0,2.789,0.523,5.457,1.466,7.918c-0.462,0.141-0.914,0.311-1.344,0.537
		c-37.383,19.773-60.605,59.109-60.605,102.654c0,33.525,13.984,43.773,33.339,57.955c1.931,1.416,3.899,2.857,5.923,4.373
		c-1.111,3.264-1.582,6.629-1.582,8.887c0,10.109,8.225,18.332,18.332,18.332h109.639c10.109,0,18.332-8.223,18.332-18.332
		c0-2.258-0.471-5.623-1.581-8.889c2.024-1.514,3.991-2.955,5.923-4.371c19.353-14.182,33.338-24.43,33.338-57.955
		C337.699,172.564,314.476,133.228,277.093,113.455z M15.596,170.424c2.036-12.85,9.041-25.811,19.726-36.496
		c12.718-12.717,29.052-20.309,43.695-20.309c8.972,0,16.56,2.846,21.944,8.232c1.757,1.756,3.236,3.75,4.44,5.94
		c3.475,6.323,4.616,14.316,3.208,23.204c-2.035,12.85-9.041,25.811-19.725,36.494c-12.719,12.719-29.053,20.311-43.697,20.311
		c-7.477,0-13.987-1.983-19.068-5.76c-1.016-0.755-1.98-1.575-2.877-2.473C16.417,192.742,13.701,182.39,15.596,170.424z
		 M271.687,127.586c8.652,4.787,16.391,10.809,23.076,17.791h-60.395v-17.791H271.687z M214.565,57.326
		c0-5.67,4.614-10.283,10.284-10.283h4.037c3.307,0,6.246,1.575,8.129,4.007c1.346,1.739,2.156,3.912,2.156,6.276v25.478h-16.606h-8
		V57.326z M198.714,97.805h10h46.309c3.967,0,7.194,3.229,7.194,7.195c0,3.967-3.228,7.195-7.194,7.195h-46.309h-10
		c-3.966,0-7.193-3.229-7.193-7.195C191.52,101.033,194.748,97.805,198.714,97.805z M182.049,127.586h10h27.32v17.791h-50.396h-10
		C165.658,138.394,173.396,132.373,182.049,127.586z M281.687,290.656h-99.639h-10c-1.837,0-3.332-1.494-3.332-3.332
		c0-0.977,0.259-2.311,0.59-3.463h10h105.123c0.332,1.152,0.59,2.486,0.59,3.463C285.019,289.162,283.525,290.656,281.687,290.656z
		 M295.494,261.965c-2.879,2.111-5.852,4.297-8.992,6.699c-0.088,0.067-0.172,0.13-0.26,0.197h-0.957H177.494h-10
		c-3.239-2.482-6.293-4.726-9.252-6.895c-1.291-0.946-2.531-1.855-3.73-2.744c-15.627-11.574-23.475-19.039-23.475-43.113
		c0-20.33,5.791-39.586,16.141-55.732h10h149.381c1.658,2.587,3.187,5.262,4.605,8c7.439,14.353,11.535,30.659,11.535,47.732
		C322.699,242.031,313.607,248.693,295.494,261.965z"/>
	<path style="fill:#FFA5A5;" d="M237.015,51.05c-0.043-0.001-0.086-0.007-0.129-0.007h-4.037c-4.699,0-8.664,3.173-9.888,7.486l0,0
		c1.171-0.713,2.525-1.111,3.908-1.111c1.97,0,3.91,0.801,5.3,2.201c1.4,1.4,2.2,3.33,2.2,5.299c0,1.98-0.8,3.91-2.2,5.311
		c-1.4,1.391-3.33,2.189-5.3,2.189c-1.542,0-3.05-0.49-4.305-1.361l0,0v11.748h16.606V57.326
		C239.172,54.962,238.361,52.789,237.015,51.05z"/>
	<path style="fill:#FFFFFF;" d="M232.849,51.043h4.037c0.043,0,0.086,0.006,0.129,0.007c-1.883-2.432-4.822-4.007-8.129-4.007
		h-4.037c-5.67,0-10.284,4.613-10.284,10.283v25.478h8V71.056c-0.356-0.247-0.695-0.521-1.005-0.828
		c-1.391-1.4-2.19-3.33-2.19-5.311c0-1.969,0.8-3.899,2.19-5.299c0.422-0.422,0.896-0.782,1.401-1.09
		C224.185,54.216,228.15,51.043,232.849,51.043z"/>
	<path style="fill:#D15252;" d="M219.37,64.918c0,1.98,0.8,3.91,2.19,5.311c0.31,0.308,0.648,0.581,1.005,0.828
		c1.255,0.871,2.763,1.361,4.305,1.361c1.97,0,3.899-0.799,5.3-2.189c1.4-1.4,2.2-3.33,2.2-5.311c0-1.969-0.8-3.899-2.2-5.299
		c-1.39-1.4-3.33-2.201-5.3-2.201c-1.383,0-2.737,0.398-3.908,1.111c-0.505,0.308-0.98,0.668-1.401,1.09
		C220.17,61.019,219.37,62.949,219.37,64.918z"/>
</g>
<g>
</g>
<g>
</g>
<g>
</g>
<g>
</g>
<g>
</g>
<g>
</g>
<g>
</g>
<g>
</g>
<g>
</g>
<g>
</g>
<g>
</g>
<g>
</g>
<g>
</g>
<g>
</g>
<g>
</g>
</svg>
